HIERARCHY
ROOT root
{
	OFFSET	0	13.1	24.9
	CHANNELS 6  Xposition Yposition Zposition Xrotation Yrotation Zrotation
	JOINT spine_1
	{
		OFFSET	0	9.99999	0
		CHANNELS 3  Xrotation Yrotation Zrotation
		JOINT spine_2
		{
			OFFSET	0	112	-10
			CHANNELS 3  Xrotation Yrotation Zrotation
			JOINT spine_3
			{
				OFFSET	0	206.5	19.3
				CHANNELS 3  Xrotation Yrotation Zrotation
				JOINT spine_4
				{
					OFFSET	0	110.4	14.6
					CHANNELS 3  Xrotation Yrotation Zrotation
					JOINT neck_1
					{
						OFFSET	0	71.8	-50.3
						CHANNELS 3  Xrotation Yrotation Zrotation
						JOINT neck_2
						{
							OFFSET	0	86.2	-25.8
							CHANNELS 3  Xrotation Yrotation Zrotation
							JOINT head_ee
							{
								OFFSET	0	179.8	-8.7
								CHANNELS 3  Xrotation Yrotation Zrotation
								End Site
								{
									OFFSET	1	0	0
								}
							}
						}
					}
					JOINT left_clavicle
					{
						OFFSET	-43.2	22.4	-70.8
						CHANNELS 3  Xrotation Yrotation Zrotation
						JOINT left_shoulder
						{
							OFFSET	-93.9	-5.79999	48.7
							CHANNELS 3  Xrotation Yrotation Zrotation
							JOINT left_elbow
							{
								OFFSET	-291.4	-30.8	15.2
								CHANNELS 3  Xrotation Yrotation Zrotation
								JOINT left_lowarm_twist
								{
									OFFSET	-110.7	-3.89999	13.6
									CHANNELS 3  Xrotation Yrotation Zrotation
									JOINT left_hand
									{
										OFFSET	-110.7	-3.89999	13.6
										CHANNELS 3  Xrotation Yrotation Zrotation
										JOINT left_ee
										{
											OFFSET	-80.8	-5.10001	12.1
											CHANNELS 3  Xrotation Yrotation Zrotation
											End Site
											{
												OFFSET	1	0	0
											}
										}
									}
								}
							}
						}
					}
					JOINT right_clavicle
					{
						OFFSET	43.2	22.4	-70.8
						CHANNELS 3  Xrotation Yrotation Zrotation
						JOINT right_shoulder
						{
							OFFSET	93.9	-5.79999	48.7
							CHANNELS 3  Xrotation Yrotation Zrotation
							JOINT right_elbow
							{
								OFFSET	291.4	-30.8	15.2
								CHANNELS 3  Xrotation Yrotation Zrotation
								JOINT right_lowarm_twist
								{
									OFFSET	110.7	-3.89999	13.6
									CHANNELS 3  Xrotation Yrotation Zrotation
									JOINT right_hand
									{
										OFFSET	110.7	-3.89999	13.6
										CHANNELS 3  Xrotation Yrotation Zrotation
										JOINT right_ee
										{
											OFFSET	80.8	-5.10001	12.1
											CHANNELS 3  Xrotation Yrotation Zrotation
											End Site
											{
												OFFSET	1	0	0
											}
										}
									}
								}
							}
						}
					}
				}
			}
		}
	}
	JOINT left_hip
	{
		OFFSET	-82.8	-127.5	0.300001
		CHANNELS 3  Xrotation Yrotation Zrotation
		JOINT left_knee
		{
			OFFSET	-28.2	-396.7	2.2
			CHANNELS 3  Xrotation Yrotation Zrotation
			JOINT left_ankle
			{
				OFFSET	-11.7	-411.3	35.4
				CHANNELS 3  Xrotation Yrotation Zrotation
				JOINT left_toes
				{
					OFFSET	0	-60	-88.6
					CHANNELS 3  Xrotation Yrotation Zrotation
					JOINT left_foot_ee
					{
						OFFSET	-22.5	-16.5	-42.2
						CHANNELS 3  Xrotation Yrotation Zrotation
						End Site
						{
							OFFSET	1	0	0
						}
					}
				}
			}
		}
	}
	JOINT right_hip
	{
		OFFSET	82.8	-127.5	0.300001
		CHANNELS 3  Xrotation Yrotation Zrotation
		JOINT right_knee
		{
			OFFSET	28.2	-396.7	2.2
			CHANNELS 3  Xrotation Yrotation Zrotation
			JOINT right_ankle
			{
				OFFSET	11.7	-411.3	35.4
				CHANNELS 3  Xrotation Yrotation Zrotation
				JOINT right_toes
				{
					OFFSET	0	-60	-88.6
					CHANNELS 3  Xrotation Yrotation Zrotation
					JOINT right_foot_ee
					{
						OFFSET	22.5	-16.5	-42.2
						CHANNELS 3  Xrotation Yrotation Zrotation
						End Site
						{
							OFFSET	1	0	0
						}
					}
				}
			}
		}
	}
}
MOTION
Frames: 15
Frame Time: 0.02
999.445904113 723.467 -1406.42888263 153.479065829 79.6079639345 -151.912877385 -2.3317 0.439093 -0.56355 -2.33165 0.474063 -0.534468 -2.33624 0.59258 -0.399049 -2.33608 0.522121 -0.487628 -6.11557 17.6268 9.87197 -5.82623 25.4575 13.1918 -0.0 0.0 -0.0 -0.0386947 25.4171 2.87531 -11.4113 -10.954 77.4321 0.469792 -13.101 0.0539456 -35.2668 -2.46243 3.70041 0.308444 24.024 11.3639 -0.0 0.0 -0.0 13.7968 22.8817 -27.8693 -3.11791 29.8821 -59.0666 0.685828 18.7647 -0.113322 -55.5217 4.73165 -4.94008 6.24001 -32.8601 -53.7195 0.0 0.0 0.0 7.11305 0.894546 -10.3779 -52.2062 -1.4197 7.61299 28.8428 -4.76499 -3.83347 -23.2302 0.0 0.0 -0.0 0.0 -0.0 -1.84494 13.921 -7.61269 -14.774 -0.321273 -2.23822 35.6522 -8.52722 4.46752 -9.07918 0.0 0.0 0.0 0.0 0.0 
973.191000864 715.664 -1393.2297176 154.180158261 77.5048708539 -152.580019043 -2.40247 0.383642 -0.698254 -2.4023 0.427295 -0.672428 -2.4074 0.582452 -0.543592 -2.40748 0.489293 -0.628756 -7.47476 17.2038 10.0378 -7.25525 24.9624 13.5207 -0.0 0.0 -0.0 0.0743606 26.5266 3.13948 -15.7671 -9.06696 75.9816 0.65771 -18.0462 0.104444 -35.3422 -2.46997 3.70646 0.366609 23.1191 11.3895 -0.0 0.0 -0.0 13.5995 21.2911 -27.5485 -0.734958 27.3852 -57.9667 0.915349 24.391 -0.197834 -54.2544 4.5781 -4.8867 6.20838 -32.6095 -53.4491 0.0 0.0 0.0 10.5415 5.02015 -12.8188 -50.9511 -1.30601 7.45661 28.2448 -3.23787 -3.74936 -23.2167 0.0 0.0 -0.0 0.0 -0.0 -3.7985 10.1634 -7.071 -15.9014 -0.321927 -2.41119 36.6821 -3.11969 4.56235 -8.91819 0.0 0.0 0.0 0.0 0.0 
956.961524857 716.073 -1393.58872901 161.741116682 75.597037896 -160.185787403 -2.09697 0.421567 -0.608607 -2.09688 0.459439 -0.580549 -2.10168 0.5881 -0.449732 -2.1016 0.509694 -0.536967 -8.66126 16.0822 9.30849 -8.53877 23.7074 12.7903 -0.0 0.0 -0.0 -0.0515656 25.8201 2.90229 -15.5944 -8.9489 74.6491 0.626119 -17.232 0.0948711 -35.103 -2.44606 3.68723 0.26064 24.1445 11.1274 -0.0 0.0 -0.0 13.5588 21.4467 -27.4399 0.423044 26.5573 -56.8796 0.93392 24.8266 -0.205567 -57.779 5.0079 -5.02668 6.15168 -32.481 -52.906 0.0 0.0 0.0 12.2779 6.62104 -14.0908 -50.7854 -1.29125 7.43577 28.61 -6.6062 -3.83376 -23.3336 0.0 0.0 -0.0 0.0 -0.0 -5.08722 7.7489 -7.21469 -14.8144 -0.321355 -2.24441 38.7808 -6.38211 4.75184 -8.58397 0.0 0.0 0.0 0.0 0.0 
935.251324816 714.668 -1369.44486182 163.662062655 73.3652996885 -162.201957779 -1.95147 0.473927 -0.54871 -1.95144 0.507882 -0.517442 -1.95622 0.618576 -0.378222 -1.956 0.55108 -0.471169 -8.83365 14.9292 8.86414 -8.72498 21.884 12.1233 -0.0 0.0 -0.0 -0.226229 26.1295 2.71091 -15.88 -7.59133 74.276 0.510566 -14.1937 0.0635665 -34.24 -2.36045 3.61704 -0.0633361 23.6797 9.07734 -0.0 0.0 -0.0 13.6289 21.2318 -27.6225 1.35581 24.5655 -56.1088 1.02625 26.947 -0.245885 -56.9861 4.91049 -4.99751 5.8507 -30.8551 -50.2341 0.0 0.0 0.0 17.3965 5.79061 -13.7999 -44.4911 -0.776921 6.61523 21.1013 -2.41695 -2.90548 -23.3591 0.0 0.0 -0.0 0.0 -0.0 -9.50573 5.25351 -6.66918 -10.713 -0.290722 -1.616 37.6674 -8.46959 4.65736 -8.84381 0.0 0.0 0.0 0.0 0.0 
916.059683314 709.154 -1366.29871655 166.341024396 71.5737661757 -165.60948021 -1.72966 0.606624 -0.740225 -1.72959 0.652496 -0.700126 -1.73786 0.801341 -0.523237 -1.73754 0.70865 -0.643228 -9.33277 14.1566 11.5209 -9.06109 18.7101 14.5694 -0.0 0.0 -0.0 -0.190584 24.7918 2.60549 -16.6033 -6.76003 73.9315 0.531205 -14.743 0.0687231 -33.6834 -2.3058 3.57109 -0.114725 22.3561 8.28251 -0.0 0.0 -0.0 13.3847 20.3556 -27.1183 3.23846 21.5504 -55.4086 1.07185 27.966 -0.266913 -55.1324 4.68436 -4.92405 5.65131 -29.4025 -48.5042 0.0 0.0 0.0 20.9854 6.30427 -13.6572 -38.0967 -0.350141 5.72998 16.7231 0.0654739 -2.33557 -22.6684 0.0 0.0 -0.0 0.0 -0.0 -12.0156 3.23147 -6.27092 -8.94407 -0.263643 -1.34593 38.9341 -8.64827 4.77343 -9.41994 0.0 0.0 0.0 0.0 0.0 
897.528063672 712.502 -1360.11287405 168.026936755 70.1153312571 -166.84747266 -1.67426 0.496425 -0.505287 -1.67428 0.527571 -0.472675 -1.67883 0.625168 -0.333041 -1.67854 0.564725 -0.427596 -10.0931 13.5386 10.2231 -9.92297 18.6437 13.2848 -0.0 0.0 -0.0 -0.0294914 24.4445 2.78161 -17.0447 -5.74843 73.6595 0.563545 -15.598 0.0771864 -32.2319 -2.16542 3.4488 -0.234379 21.5413 7.26707 -0.0 0.0 -0.0 13.0514 17.8334 -26.5013 4.47993 20.9671 -56.0071 1.14958 29.6591 -0.304375 -56.1677 4.81037 -4.96598 5.32307 -26.9452 -45.6115 0.0 0.0 0.0 23.6494 6.5336 -13.9792 -33.1588 -0.0898307 5.01763 12.219 1.41347 -1.73359 -22.7404 0.0 0.0 -0.0 0.0 -0.0 -13.9633 2.14061 -7.09432 -6.51427 -0.212878 -0.976548 40.056 -8.42146 4.87148 -9.68707 0.0 0.0 0.0 0.0 0.0 
900.346540132 712.502 -1349.05913266 168.746159493 68.8041166208 -167.615471946 -1.67426 0.496425 -0.505287 -1.67428 0.527571 -0.472675 -1.67883 0.625168 -0.333041 -1.67854 0.564725 -0.427596 -10.0931 13.5386 10.2231 -9.92297 18.6437 13.2848 -0.0 0.0 -0.0 -0.0294914 24.4445 2.78161 -17.0447 -5.74843 73.6595 0.563545 -15.598 0.0771864 -32.2319 -2.16542 3.4488 -0.234379 21.5413 7.26707 -0.0 0.0 -0.0 13.0514 17.8334 -26.5013 4.47993 20.9671 -56.0071 1.14958 29.6591 -0.304375 -56.1677 4.81037 -4.96598 5.32307 -26.9452 -45.6115 0.0 0.0 0.0 23.6494 6.5336 -13.9792 -33.1588 -0.0898307 5.01763 12.219 1.41347 -1.73359 -22.7404 0.0 0.0 -0.0 0.0 -0.0 -13.9633 2.14061 -7.09432 -6.51427 -0.212878 -0.976548 40.056 -8.42146 4.87148 -9.68707 0.0 0.0 0.0 0.0 0.0 
880.780761616 707.578 -1338.53157321 170.248075779 67.4947998287 -169.146367998 -1.54569 0.44768 -0.287193 -1.54576 0.465048 -0.258123 -1.54801 0.512904 -0.140804 -1.54771 0.48423 -0.220042 -9.35012 13.1235 9.82971 -9.17234 17.9324 12.7025 -0.0 0.0 -0.0 -0.0568441 23.4675 2.63717 -18.1916 -4.10572 73.3789 0.556471 -15.4115 0.0752954 -30.3191 -1.98527 3.28232 -0.421686 18.545 4.96414 -0.0 0.0 -0.0 13.0501 15.9597 -26.5856 8.29275 17.1388 -56.0692 1.17597 30.2215 -0.317547 -52.2741 4.34056 -4.79652 5.31532 -21.9949 -45.1367 0.0 0.0 0.0 25.3197 6.10524 -13.5583 -28.5621 0.0964489 4.33699 9.76142 -0.808517 -1.40482 -22.1648 0.0 0.0 -0.0 0.0 -0.0 -14.9318 2.18585 -7.02197 -5.05822 -0.174964 -0.756319 39.4781 -9.7755 4.82877 -11.307 0.0 0.0 0.0 0.0 0.0 
882.492470477 707.578 -1332.52236201 170.526275655 66.8025983848 -169.448256148 -1.54569 0.44768 -0.287193 -1.54576 0.465048 -0.258123 -1.54801 0.512904 -0.140804 -1.54771 0.48423 -0.220042 -9.35012 13.1235 9.82971 -9.17234 17.9324 12.7025 -0.0 0.0 -0.0 -0.0568441 23.4675 2.63717 -18.1916 -4.10572 73.3789 0.556471 -15.4115 0.0752954 -30.3191 -1.98527 3.28232 -0.421686 18.545 4.96414 -0.0 0.0 -0.0 13.0501 15.9597 -26.5856 8.29275 17.1388 -56.0692 1.17597 30.2215 -0.317547 -52.2741 4.34056 -4.79652 5.31532 -21.9949 -45.1367 0.0 0.0 0.0 25.3197 6.10524 -13.5583 -28.5621 0.0964489 4.33699 9.76142 -0.808517 -1.40482 -22.1648 0.0 0.0 -0.0 0.0 -0.0 -14.9318 2.18585 -7.02197 -5.05822 -0.174964 -0.756319 39.4781 -9.7755 4.82877 -11.307 0.0 0.0 0.0 0.0 0.0 
868.639748095 704.014 -1333.46737471 173.405116223 67.5357247882 -172.117902694 -1.35059 0.500366 -0.151961 -1.35072 0.509021 -0.119813 -1.35194 0.522927 0.00218885 -1.35156 0.51671 -0.0804274 -9.90822 11.9387 8.80581 -9.78406 16.5302 11.5025 -0.0 0.0 -0.0 0.302016 23.5337 3.13466 -18.5264 -3.17518 72.4055 0.572574 -15.8354 0.0796323 -28.679 -1.83532 3.13489 -0.45227 16.1797 3.81447 -0.0 0.0 -0.0 13.0631 14.9129 -26.652 10.421 17.4914 -55.7731 1.20902 30.9167 -0.334355 -52.5558 4.37417 -4.80985 5.14233 -20.3945 -43.3815 0.0 0.0 0.0 28.7755 6.82234 -13.6255 -25.0479 0.201675 3.80802 7.99327 -0.340269 -1.15608 -21.7705 0.0 0.0 -0.0 0.0 -0.0 -15.1803 1.88396 -7.06767 -4.26479 -0.15195 -0.636728 40.5405 -9.7016 4.92141 -10.7641 0.0 0.0 0.0 0.0 0.0 
871.203743455 704.014 -1324.65866431 173.672059813 66.5370065206 -172.407810479 -1.35059 0.500366 -0.151961 -1.35072 0.509021 -0.119813 -1.35194 0.522927 0.00218885 -1.35156 0.51671 -0.0804274 -9.90822 11.9387 8.80581 -9.78406 16.5302 11.5025 -0.0 0.0 -0.0 0.302016 23.5337 3.13466 -18.5264 -3.17518 72.4055 0.572574 -15.8354 0.0796323 -28.679 -1.83532 3.13489 -0.45227 16.1797 3.81447 -0.0 0.0 -0.0 13.0631 14.9129 -26.652 10.421 17.4914 -55.7731 1.20902 30.9167 -0.334355 -52.5558 4.37417 -4.80985 5.14233 -20.3945 -43.3815 0.0 0.0 0.0 28.7755 6.82234 -13.6255 -25.0479 0.201675 3.80802 7.99327 -0.340269 -1.15608 -21.7705 0.0 0.0 -0.0 0.0 -0.0 -15.1803 1.88396 -7.06767 -4.26479 -0.15195 -0.636728 40.5405 -9.7016 4.92141 -10.7641 0.0 0.0 0.0 0.0 0.0 
872.875531858 704.014 -1319.20545307 173.826511863 65.9158479304 -172.576581159 -1.35059 0.500366 -0.151961 -1.35072 0.509021 -0.119813 -1.35194 0.522927 0.00218885 -1.35156 0.51671 -0.0804274 -9.90822 11.9387 8.80581 -9.78406 16.5302 11.5025 -0.0 0.0 -0.0 0.302016 23.5337 3.13466 -18.5264 -3.17518 72.4055 0.572574 -15.8354 0.0796323 -28.679 -1.83532 3.13489 -0.45227 16.1797 3.81447 -0.0 0.0 -0.0 13.0631 14.9129 -26.652 10.421 17.4914 -55.7731 1.20902 30.9167 -0.334355 -52.5558 4.37417 -4.80985 5.14233 -20.3945 -43.3815 0.0 0.0 0.0 28.7755 6.82234 -13.6255 -25.0479 0.201675 3.80802 7.99327 -0.340269 -1.15608 -21.7705 0.0 0.0 -0.0 0.0 -0.0 -15.1803 1.88396 -7.06767 -4.26479 -0.15195 -0.636728 40.5405 -9.7016 4.92141 -10.7641 0.0 0.0 0.0 0.0 0.0 
874.607305188 704.014 -1313.76891181 173.972986094 65.2942968022 -172.737412175 -1.35059 0.500366 -0.151961 -1.35072 0.509021 -0.119813 -1.35194 0.522927 0.00218885 -1.35156 0.51671 -0.0804274 -9.90822 11.9387 8.80581 -9.78406 16.5302 11.5025 -0.0 0.0 -0.0 0.302016 23.5337 3.13466 -18.5264 -3.17518 72.4055 0.572574 -15.8354 0.0796323 -28.679 -1.83532 3.13489 -0.45227 16.1797 3.81447 -0.0 0.0 -0.0 13.0631 14.9129 -26.652 10.421 17.4914 -55.7731 1.20902 30.9167 -0.334355 -52.5558 4.37417 -4.80985 5.14233 -20.3945 -43.3815 0.0 0.0 0.0 28.7755 6.82234 -13.6255 -25.0479 0.201675 3.80802 7.99327 -0.340269 -1.15608 -21.7705 0.0 0.0 -0.0 0.0 -0.0 -15.1803 1.88396 -7.06767 -4.26479 -0.15195 -0.636728 40.5405 -9.7016 4.92141 -10.7641 0.0 0.0 0.0 0.0 0.0 
877.205127774 704.014 -1305.97390423 174.170975788 64.3989428023 -172.956136733 -1.35059 0.500366 -0.151961 -1.35072 0.509021 -0.119813 -1.35194 0.522927 0.00218885 -1.35156 0.51671 -0.0804274 -9.90822 11.9387 8.80581 -9.78406 16.5302 11.5025 -0.0 0.0 -0.0 0.302016 23.5337 3.13466 -18.5264 -3.17518 72.4055 0.572574 -15.8354 0.0796323 -28.679 -1.83532 3.13489 -0.45227 16.1797 3.81447 -0.0 0.0 -0.0 13.0631 14.9129 -26.652 10.421 17.4914 -55.7731 1.20902 30.9167 -0.334355 -52.5558 4.37417 -4.80985 5.14233 -20.3945 -43.3815 0.0 0.0 0.0 28.7755 6.82234 -13.6255 -25.0479 0.201675 3.80802 7.99327 -0.340269 -1.15608 -21.7705 0.0 0.0 -0.0 0.0 -0.0 -15.1803 1.88396 -7.06767 -4.26479 -0.15195 -0.636728 40.5405 -9.7016 4.92141 -10.7641 0.0 0.0 0.0 0.0 0.0 
879.785821401 704.014 -1298.6083725 174.346150974 63.5481966417 -173.151075457 -1.35059 0.500366 -0.151961 -1.35072 0.509021 -0.119813 -1.35194 0.522927 0.00218885 -1.35156 0.51671 -0.0804274 -9.90822 11.9387 8.80581 -9.78406 16.5302 11.5025 -0.0 0.0 -0.0 0.302016 23.5337 3.13466 -18.5264 -3.17518 72.4055 0.572574 -15.8354 0.0796323 -28.679 -1.83532 3.13489 -0.45227 16.1797 3.81447 -0.0 0.0 -0.0 13.0631 14.9129 -26.652 10.421 17.4914 -55.7731 1.20902 30.9167 -0.334355 -52.5558 4.37417 -4.80985 5.14233 -20.3945 -43.3815 0.0 0.0 0.0 28.7755 6.82234 -13.6255 -25.0479 0.201675 3.80802 7.99327 -0.340269 -1.15608 -21.7705 0.0 0.0 -0.0 0.0 -0.0 -15.1803 1.88396 -7.06767 -4.26479 -0.15195 -0.636728 40.5405 -9.7016 4.92141 -10.7641 0.0 0.0 0.0 0.0 0.0 
